<?xml version="1.0" encoding="UTF-8"?>
<!DOCTYPE svg PUBLIC "-//W3C//DTD SVG 1.1//EN" "http://www.w3.org/Graphics/SVG/1.1/DTD/svg11.dtd">
<!-- Creator: CorelDRAW 2019 (64-Bit Wersja próbna) -->
<svg xmlns="http://www.w3.org/2000/svg" xml:space="preserve" width="161.413mm" height="161.413mm" version="1.1" style="shape-rendering:geometricPrecision; text-rendering:geometricPrecision; image-rendering:optimizeQuality; fill-rule:evenodd; clip-rule:evenodd"
viewBox="0 0 16128.91 16128.94"
 xmlns:xlink="http://www.w3.org/1999/xlink"
 xmlns:xodm="http://www.corel.com/coreldraw/odm/2003">
 <defs>
  <style type="text/css">
   <![CDATA[
    .fil0 {fill:white}
   ]]>
  </style>
 </defs>
 <g id="Warstwa_x0020_1">
  <metadata id="CorelCorpID_0Corel-Layer"/>
  <g id="_2610014192176">
   <path class="fil0" d="M4942.73 2861.59l0 1040.58c0,430.28 350.15,780.43 780.44,780.43l780.43 -0.01 0 -520.29 -780.43 0c-143.6,0 -260.15,-116.54 -260.15,-260.14l0 -1040.58c0,-143.6 116.55,-260.15 260.15,-260.15l780.43 0.01 0 -520.28 -780.43 0c-430.29,0 -780.44,350.15 -780.44,780.43z"/>
   <path class="fil0" d="M8324.61 2081.16l-520.3 0c-430.28,0 -780.43,350.15 -780.43,780.43l0 1040.58c0,430.28 350.15,780.43 780.43,780.43l520.3 -0.01c430.28,0 780.43,-350.15 780.43,-780.43l0 -1040.58c0,-430.29 -350.15,-780.43 -780.43,-780.43l0 0.01zm260.13 1821c0,143.6 -116.55,260.14 -260.15,260.14l-520.28 0c-143.6,0 -260.15,-116.54 -260.15,-260.14l0 -1040.58c0,-143.6 116.55,-260.15 260.15,-260.15l520.3 0.01c143.6,0 260.14,116.55 260.14,260.15l-0.01 1040.57z"/>
   <path class="fil0" d="M10665.91 3121.72l-1040.58 0 0 520.29 1040.58 0.01 0 520.28 -520.3 0c-286.94,0 -520.28,233.36 -520.28,520.29l0 520.28c0,286.94 233.36,520.28 520.28,520.28l1040.58 0.02 0 -520.29 -1040.58 0 0 -520.28 520.3 -0.01c286.94,0 520.28,-233.36 520.28,-520.29l0 -520.28c0,-286.94 -233.35,-520.28 -520.28,-520.28l0 -0.02z"/>
   <path class="fil0" d="M8064.46 8453.38l-1785.63 2009.09c-358.22,402.96 -555.66,921.7 -555.66,1460.97 0,911.55 573.35,1739.32 1426.88,2059.3l654.26 245.31 0 860.3 520.3 0.01 0 -860.3 654.26 -245.31c853.53,-319.97 1426.88,-1147.75 1426.88,-2059.3 0,-539.28 -197.46,-1058 -555.66,-1460.97l-1785.63 -2009.1zm731.53 5042.11l-471.38 176.89 0 -557.23 964.35 -964.36 -367.85 -367.85 -596.5 596.25 0 -2493.74 -520.3 0.03 0 1713.31 -596.51 -596.51 -367.85 367.85 964.36 964.36 0 1337.65 -471.38 -176.89c-651.67,-244 -1089.48,-875.64 -1089.48,-1571.78 0,-411.81 150.62,-807.76 424.03,-1115.5l1396.98 -1571.53 1396.97 1571.53c273.41,307.74 424.04,703.69 424.04,1115.5 0,696.15 -437.83,1327.78 -1089.48,1572.04l0 -0.02z"/>
   <path class="fil0" d="M14513.17 3956.53c32.53,-189.38 54.89,-380.85 54.89,-574.66 0,-1864.72 -1517.15,-3381.87 -3381.87,-3381.87 -855.61,0 -1658.15,313.22 -2284.06,886.83 -764.05,-573.62 -1699.26,-886.83 -2658.67,-886.83 -2253.11,0 -4134.46,1702.38 -4388.37,3914.9 -1041.62,113.17 -1855.09,997.39 -1855.09,2068.4 0,1147.49 933.65,2081.15 2081.15,2081.15l2753.88 0.01 -2493.74 2493.74c-167.79,167.52 -260.14,390.73 -260.14,627.98 0,237.26 92.35,460.46 260.14,627.99l152.45 152.44c252.6,252.61 646.98,314.53 969.56,186.54l386.57 3286.66c46.57,392.83 379.81,689.13 774.97,689.13l6878.99 -0.01c395.42,0 728.66,-296.31 774.97,-689.13l386.04 -3281.19c107.19,44.49 222.95,68.16 342.35,68.16 237.26,0 460.46,-92.35 627.99,-260.15l152.44 -152.44c167.8,-167.8 260.15,-390.73 260.15,-627.99 0,-237.25 -92.35,-460.46 -260.15,-627.98l-2493.73 -2493.74 2753.87 0c1147.49,0 2081.14,-933.65 2081.14,-2081.15 0,-987.25 -691.72,-1814.51 -1615.75,-2026.78l0.01 0zm-2750.77 11422.14c-15.61,131.11 -126.43,229.96 -258.33,229.96l-6879.24 0c-131.9,0 -242.97,-98.85 -258.33,-229.96l-424.03 -3604.82 4121.98 -4121.97 4121.97 4121.97 -424.02 3604.82zm1765.08 -4192.48c0,98.33 -38.25,190.42 -107.71,260.15l-152.44 152.45c-139.17,138.65 -381.11,138.65 -520.29,0l-4498.66 -4498.67c-50.73,-50.73 -117.32,-76.22 -183.92,-76.22 -66.6,0 -133.19,25.49 -183.93,76.22l-4498.66 4498.67c-139.17,138.65 -381.11,138.65 -520.28,0l-152.45 -152.45c-69.46,-69.73 -107.7,-161.82 -107.7,-260.15 0,-98.33 38.25,-190.42 107.7,-260.15l4803.57 -4803.56c304.37,-304.37 799.16,-304.37 1103.52,0l4803.57 4803.56c69.46,69.73 107.7,161.82 107.7,260.15l-0.01 0zm520.28 -3642l-3274.16 0 -1789.54 -1789.55c-507.02,-507.02 -1332.2,-507.02 -1839.21,0l-1789.54 1789.55 -3274.16 0c-860.83,0 -1560.86,-700.06 -1560.86,-1560.87 0,-860.81 700.05,-1560.86 1560.86,-1560.86 860.81,0 1560.86,700.05 1560.86,1560.86l520.28 0c0,-1047.08 -777.82,-1913.36 -1785.63,-2057.73 245.57,-1928.18 1894.89,-3405.28 3866.78,-3405.28 916.49,0 1807.73,323.88 2509.61,912.33l187.3 156.87 168.06 -176.89c548.38,-575.44 1286.15,-892.29 2077.76,-892.29 1577.78,0 2861.58,1283.81 2861.58,2861.57 0,176.64 -21.59,350.94 -53.33,522.9 -1122.78,28.88 -2027.82,949 -2027.82,2078.55l520.29 -0.02c0,-860.82 700.05,-1560.86 1560.86,-1560.86 860.81,0 1560.86,700.05 1560.86,1560.86 0,860.81 -700.05,1560.87 -1560.86,1560.87z"/>
  </g>
 </g>
</svg>
