<?xml version="1.0" encoding="UTF-8"?>
<!DOCTYPE svg PUBLIC "-//W3C//DTD SVG 1.1//EN" "http://www.w3.org/Graphics/SVG/1.1/DTD/svg11.dtd">
<!-- Creator: CorelDRAW 2019 (64-Bit Wersja próbna) -->
<svg xmlns="http://www.w3.org/2000/svg" xml:space="preserve" width="166.972mm" height="185.545mm" version="1.1" style="shape-rendering:geometricPrecision; text-rendering:geometricPrecision; image-rendering:optimizeQuality; fill-rule:evenodd; clip-rule:evenodd"
viewBox="0 0 16684.79 18540.75"
 xmlns:xlink="http://www.w3.org/1999/xlink"
 xmlns:xodm="http://www.corel.com/coreldraw/odm/2003"
 enable-background="new 0 0 512 512">
 <defs>
  <style type="text/css">
   <![CDATA[
    .fil0 {fill:white}
   ]]>
  </style>
 </defs>
 <g id="Warstwa_x0020_1">
  <metadata id="CorelCorpID_0Corel-Layer"/>
  <g id="_2609841501312">
   <g>
    <path class="fil0" d="M13231.64 9105.75l1293.3 0c292.37,0 530.26,-237.87 530.26,-530.26l0 -1293.29c0,-292.37 -237.87,-530.26 -530.26,-530.26l-1293.3 0c-292.37,0 -530.26,237.87 -530.26,530.26l0 1293.29c0,292.37 237.87,530.26 530.26,530.26zm12.93 -1810.63l1267.43 0 0 1267.44 -1267.43 0.01 0 -1267.45zm-12.93 5250.8l1293.3 0c292.37,0 530.26,-237.87 530.26,-530.27l0 -1293.28c0,-292.37 -237.87,-530.26 -530.26,-530.26l-1293.3 0c-292.37,0 -530.26,237.87 -530.26,530.26l0 1293.28c0,292.37 237.87,530.27 530.26,530.27zm12.93 -1810.62l1267.43 0 0 1267.43 -1267.43 0 0 -1267.43zm-3703.54 -1629.56l1293.29 0c292.36,0 530.26,-237.87 530.26,-530.26l0 -1293.29c0,-292.37 -237.87,-530.26 -530.26,-530.26l-1293.29 0c-292.37,0 -530.26,237.87 -530.26,530.26l0 1293.29c0,292.37 237.87,530.26 530.26,530.26zm12.92 -1810.63l1267.43 0 0 1267.44 -1267.43 0.01 0 -1267.45zm-6100.86 6175.89l-1293.3 0c-292.37,0 -530.26,237.87 -530.26,530.26l0 1293.29c0,292.37 237.86,530.26 530.26,530.26l1293.3 0c292.36,0 530.26,-237.87 530.26,-530.26l0 -1293.29c0,-292.37 -237.87,-530.26 -530.26,-530.26zm-12.94 1810.61l-1267.43 0 0 -1267.43 1267.43 0 0 1267.43zm12.94 -8529.67l-1293.3 0c-292.37,0 -530.26,237.87 -530.26,530.26l0 1293.29c0,292.37 237.86,530.26 530.26,530.26l1293.3 0c292.36,0 530.26,-237.87 530.26,-530.26l0 -1293.29c0,-292.41 -237.87,-530.26 -530.26,-530.26zm-12.94 1810.63l-1267.43 0 0 -1267.43 1267.43 -0.02 0 1267.45zm6100.88 3902.71l1293.29 0c292.36,0 530.26,-237.87 530.26,-530.27l0 -1293.28c0,-292.37 -237.87,-530.26 -530.26,-530.26l-1293.29 0c-292.37,0 -530.26,237.87 -530.26,530.26l0 1293.28c0,292.37 237.87,530.27 530.26,530.27zm12.92 -1810.63l1267.43 0 0 1267.43 -1267.43 0 0 -1267.43zm5771 -9413.51l-1161.2 0 0 -415.25c0,-455.4 -370.5,-825.9 -825.9,-825.9l-124.72 0.01c-455.36,0 -825.86,370.5 -825.86,825.91l0 415.25 -8089.85 -0.02 0 -415.25c0,-455.4 -370.5,-825.9 -825.9,-825.9l-124.7 0.01c-455.41,0 -825.91,370.5 -825.91,825.91l0 415.25 -1161.15 -0.02c-749.78,0 -1359.78,610 -1359.78,1359.78l0 14581.85c0,748.81 609.17,1357.97 1357.97,1357.97l13968.84 -0.01c748.81,0 1357.97,-609.17 1357.97,-1357.97l0 -14581.86c-0.04,-749.77 -610.04,-1359.77 -1359.84,-1359.77l0 0.01zm-2394.48 -415.25c0,-155.88 126.83,-282.7 282.71,-282.7l124.72 0c155.88,0 282.71,126.82 282.71,282.7l0 415.25 -690.14 0 0 -415.25zm-9866.31 0c0,-155.88 126.82,-282.7 282.71,-282.7l124.72 0c155.89,0 282.71,126.82 282.71,282.7l0 415.25 -690.1 0 0 -415.25 -0.04 0zm13077.42 16356.88c0,449.3 -365.49,814.78 -814.78,814.78l-13968.85 0c-449.29,0 -814.78,-365.48 -814.78,-814.78l0 -1.69c227.55,171.46 510.41,273.29 816.62,273.29l11011.55 -0.01c363.22,0 704.7,-141.46 961.52,-398.3l2808.7 -2808.71 0.02 2935.42zm-3085.84 -617.75c21.29,-87.88 32.87,-179.54 32.87,-273.87l0 -1812.93c0,-341.86 278.15,-619.99 620.03,-619.99l1812.91 0c94.33,0 185.98,-11.59 273.87,-32.88l-2739.68 2739.67zm3085.84 -11442.64l-11572.54 0c-149.99,0 -271.6,121.6 -271.6,271.6 0,149.99 121.61,271.6 271.6,271.6l11572.54 0 0 7029.47c0,341.88 -278.15,620.02 -620.03,620.02l-1812.91 0c-641.39,0 -1163.21,521.82 -1163.21,1163.19l0 1812.93c0,341.88 -278.15,620.03 -619.98,620.03l-10565.66 -0.02c-450.27,0 -816.59,-366.32 -816.59,-816.61l0 -10429.01 2939.47 0c150,0 271.6,-121.61 271.6,-271.6 0,-150 -121.6,-271.6 -271.6,-271.6l-2939.5 0 0 -2521.46c0,-450.27 366.32,-816.59 816.59,-816.59l1161.18 0 0 798.55c0,455.41 370.5,825.91 825.91,825.91 149.99,0 271.6,-121.61 271.6,-271.6 0,-149.99 -121.61,-271.6 -271.6,-271.6 -155.89,0 -282.71,-126.82 -282.71,-282.71l0 -798.55 9323.16 0 0 798.55c0,455.41 370.5,825.91 825.91,825.91 149.99,0 271.59,-121.61 271.59,-271.6 0,-149.99 -121.6,-271.6 -271.59,-271.6 -155.89,0 -282.71,-126.82 -282.71,-282.71l0 -798.55 2394.49 0c450.26,0 816.59,366.32 816.59,816.59l0 2521.46zm-12688.48 4989.1l-1293.3 0c-292.37,0 -530.26,237.87 -530.26,530.26l0 1293.28c0,292.37 237.86,530.27 530.26,530.27l1293.3 0c292.36,0 530.26,-237.87 530.26,-530.27l0 -1293.28c0,-292.41 -237.87,-530.26 -530.26,-530.26zm-12.94 1810.61l-1267.43 0 0 -1267.43 1267.43 0 0 1267.43zm2410.26 -2816.34l1293.28 0c292.37,0 530.27,-237.87 530.27,-530.26l0 -1293.29c0,-292.37 -237.87,-530.26 -530.27,-530.26l-1293.28 0c-292.37,0 -530.26,237.87 -530.26,530.26l0 1293.29c0,292.37 237.87,530.26 530.26,530.26zm12.93 -1810.63l1267.43 0 0 1267.44 -1267.43 0.01 0 -1267.45zm3690.28 7986.49c-6.74,-144 -125.62,-258.66 -271.31,-258.66 -149.99,0 -271.6,121.61 -271.6,271.6 0,292.37 237.87,530.26 530.27,530.26l1293.29 0c292.37,0 530.27,-237.87 530.27,-530.26l0 -1293.29c0,-292.37 -237.87,-530.26 -530.27,-530.26l-1293.28 0c-292.37,0 -530.26,237.87 -530.26,530.26l0 372.99c0,149.99 121.6,271.59 271.6,271.59 149.99,0 271.59,-121.6 271.59,-271.59l0 -360.07 1267.43 0 0 1267.43 -1267.73 0zm-3703.21 -2816.33l1293.28 0c292.37,0 530.27,-237.87 530.27,-530.27l0 -1293.28c0,-292.37 -237.87,-530.26 -530.27,-530.26l-1293.28 0c-292.37,0 -530.26,237.87 -530.26,530.26l0 1293.28c0,292.37 237.87,530.27 530.26,530.27zm12.93 -1810.63l1267.43 0 0 1267.43 -1267.43 0 0 -1267.43zm-12.93 5170.15l1293.28 0c292.37,0 530.27,-237.87 530.27,-530.26l0 -1293.29c0,-292.37 -237.87,-530.26 -530.27,-530.26l-1293.28 0c-292.37,0 -530.26,237.87 -530.26,530.26l0 1293.29c0,292.37 237.87,530.26 530.26,530.26zm12.93 -1810.63l1267.43 0 0 1267.43 -1267.43 0 0 -1267.43z"/>
   </g>
  </g>
 </g>
</svg>
