<?xml version="1.0" encoding="UTF-8"?>
<!DOCTYPE svg PUBLIC "-//W3C//DTD SVG 1.1//EN" "http://www.w3.org/Graphics/SVG/1.1/DTD/svg11.dtd">
<!-- Creator: CorelDRAW 2019 (64-Bit Wersja próbna) -->
<svg xmlns="http://www.w3.org/2000/svg" xml:space="preserve" width="167.713mm" height="164.982mm" version="1.1" style="shape-rendering:geometricPrecision; text-rendering:geometricPrecision; image-rendering:optimizeQuality; fill-rule:evenodd; clip-rule:evenodd"
viewBox="0 0 16758.91 16486.01"
 xmlns:xlink="http://www.w3.org/1999/xlink"
 xmlns:xodm="http://www.corel.com/coreldraw/odm/2003"
 enable-background="new 0 0 499.573 499.573">
 <defs>
  <style type="text/css">
   <![CDATA[
    .fil0 {fill:white}
   ]]>
  </style>
 </defs>
 <g id="Warstwa_x0020_1">
  <metadata id="CorelCorpID_0Corel-Layer"/>
  <g id="_2609983522576">
   <g>
    <path class="fil0" d="M16753.79 7544.6c-34.98,-454.21 -240.31,-860.08 -578.1,-1142.88 -316.21,-264.72 -713.55,-388.09 -1118.96,-347.44 -552.9,55.45 -1039.89,417.14 -1279.95,937.86l-502.49 44.39 -495.95 -139.02c-38.54,-10.8 -69.64,-41.33 -83.19,-81.65 -144.11,-428.76 -349.82,-833.61 -611.92,-1204.48l175.51 -471.89 553.94 -599.14c315.07,-10.56 608.05,-149.44 818.16,-391.62 380.18,-438.21 364.38,-1109.78 -36.02,-1528.86 -219.77,-229.99 -515.78,-356.06 -832.38,-352.68 -312.62,2.55 -613.56,135.59 -825.71,365.09 -207.83,224.75 -314.23,517.92 -301.02,819.69l-554.01 599.24 -464.22 215.33c-692.39,-404.74 -1478.65,-623.63 -2282.88,-635.3l-303.53 -484.07 -107.04 -531.94c426.46,-348.72 625.73,-890.35 511.77,-1423.94 -171.01,-800.71 -995.55,-1322.28 -1837.85,-1162.5 -424.1,80.38 -784.91,316.21 -1016.02,663.95 -216.47,325.77 -291.24,713.33 -210.5,1091.25 107.62,503.91 472.9,910.38 969.85,1091.73l118.25 587.67 -94.06 572.8c-428.44,191.65 -823.59,445.73 -1177.61,757.13l-347.93 -61.98 -393.17 -296.61c-56.19,-298.59 -228.54,-561.46 -484.64,-733.29 -477.93,-320.7 -1120.61,-232.98 -1494.91,204.02 -206.91,241.6 -302.05,548.24 -267.87,863.38 33.72,310.78 196.14,596.96 445.64,785.19 257.97,194.6 586.06,268.83 900.06,208.49l329.46 248.55 147.78 302.39c6.54,13.39 6.71,28.82 0.5,42.3 -281.82,612.8 -424.69,1267 -424.69,1944.51 0,125.39 5.2,252.86 15.43,378.86 1.57,19.47 -6.12,37.24 -20.59,47.53l-556.37 396.42 -635.04 199.77c-389.9,-301.69 -905.48,-392.8 -1380.02,-235.97 -9.49,3.15 -18.86,6.55 -28.18,9.99l-7.85 2.88c-130.73,47.11 -198.53,191.25 -151.47,321.97 47.07,130.7 191.15,198.56 321.97,151.46l11.78 -4.29c3.96,-1.45 7.91,-2.96 11.84,-4.26 346.56,-114.6 726.3,-29.36 991.09,222.41 47.46,45.12 109.77,69.25 173.36,69.25 25.23,0 50.69,-3.79 75.48,-11.61l806.05 -253.57c25.18,-7.91 48.97,-19.76 70.51,-35.08l588.8 -419.53c157.87,-112.44 246.07,-303.35 230.17,-498.22 -9.13,-112.48 -13.78,-226.2 -13.78,-338.04 0,-604.4 127.41,-1187.9 378.7,-1734.27 69.54,-151.27 67.54,-323.83 -5.57,-473.44l-174.23 -356.53c-17.39,-35.59 -42.91,-66.52 -74.51,-90.37l-473.64 -357.33c-65.28,-49.25 -150.46,-63.7 -228.25,-38.75 -196.43,62.93 -411.65,26.58 -575.71,-97.21 -141.13,-106.44 -229.32,-261.94 -248.41,-437.78 -19.06,-175.65 34.14,-346.74 149.79,-481.75 204.96,-239.28 570.58,-289.17 832.37,-113.53 161.39,108.33 263.24,281.22 279.44,474.45 5.98,71.32 42.03,136.74 99.19,179.84l524.6 395.78c31.6,23.85 68.4,39.89 107.38,46.83l528.55 94.19c77.79,13.9 157.44,-9.59 215.27,-63.26 368.25,-341.7 789.11,-611.34 1251.01,-801.45 80.69,-33.22 138.39,-105.81 152.51,-191.89l123.85 -754.12c4.93,-29.99 4.37,-60.62 -1.61,-90.4l-156.69 -778.77c-19.03,-94.57 -90.45,-169.94 -183.87,-194 -389.07,-100.23 -679.45,-390.51 -757.81,-757.47 -52.19,-244.36 -3.35,-495.67 137.55,-707.7 155.48,-233.99 400.77,-393.13 690.64,-448.07 576.08,-109.09 1137.69,237.67 1252.04,773.21 81.89,383.51 -88.72,775.83 -434.7,999.52 -86.78,56.12 -130.42,159.61 -110.03,260.92l147.84 734.66c6,29.79 17.34,58.23 33.48,84l363.4 579.71c70.18,111.95 190.91,178.77 323.61,178.77l0.18 -0.05c757.27,0 1499.38,206.37 2146.17,596.86 108.43,65.44 241.5,72.87 355.96,19.83l568.84 -263.87c29.79,-13.82 56.6,-33.34 78.86,-57.43l664.22 -718.43c52.13,-56.36 75.65,-133.41 63.91,-209.3 -29.83,-192.69 28.75,-385.04 160.69,-527.71 120,-129.78 283.49,-202.05 460.35,-203.53 176.19,-0.04 341.63,68.53 464.45,197.11 222.92,233.33 231.61,607.33 19.77,851.47 -132.84,153.11 -325.07,232.15 -527.42,216.94 -76.51,-5.81 -151.56,23.75 -203.63,80.1l-664.22 718.43c-22.3,24.09 -39.65,52.33 -51.09,83.1l-215.94 580.61c-44.39,119.32 -25.89,252.3 49.38,355.73 250.29,343.84 445.52,721.45 580.28,1122.36 66.66,198.35 225.29,350.08 424.4,405.87l540.19 151.4c29.26,8.21 59.75,10.99 90.04,8.34l701.55 -61.95c98.7,-8.71 183.05,-74.5 215.57,-168.1 145.24,-418.42 505.24,-715.47 917.08,-756.77 269.34,-27.04 534.28,55.59 745.77,232.62 233.05,195.11 374.9,477.7 399.4,795.68 16.17,210.14 -21.81,421.14 -109.84,610.25 -58.64,125.97 -4.09,275.62 121.91,334.29 126.04,58.64 275.66,4.1 334.29,-121.91 124.29,-267.36 178,-565.18 155.22,-861.32l0 -0.03z"/>
    <path class="fil0" d="M15487.54 8790.4c-70.62,23.25 -143.48,38.75 -216.55,46.1 -435.39,43.58 -842.35,-197.51 -1037.14,-614.4 -44.78,-95.8 -144.77,-153.48 -250.08,-144.09l-658.58 58.18c-30.3,2.68 -59.82,10.79 -87.2,24.02l-497.11 239.82c-188.33,90.84 -318.28,270.31 -347.57,480.06 -43.61,312.07 -123.08,619.22 -236.17,912.86 -67.49,175.27 -54.15,368.94 36.67,531.26l177.05 316.62c19.33,34.55 46.54,64.07 79.44,86.12l492.73 330.57c67.87,45.56 153.72,55.26 230.06,26.07 192.59,-73.7 409.5,-49.34 580.21,65.18 146.76,98.47 243.48,248.81 272.27,423.32 28.75,174.31 -14.86,348.11 -122.89,489.34 -191.42,250.31 -553.64,320.36 -824.79,159.44 -167.13,-99.2 -278.43,-266.22 -305.3,-458.24 -9.93,-70.89 -49.58,-134.19 -109.03,-174.03l-545.73 -366.13c-32.88,-22.07 -70.52,-36.06 -109.8,-40.82l-343.48 -41.77c-192.13,-23.42 -383.67,40.69 -525.41,175.78 -275.08,262.1 -583.96,485.34 -918.06,663.52 -194.3,103.59 -323.65,305.73 -337.54,527.48l-43.57 695.88c-1.61,25.93 0.76,51.99 7.14,77.19l215.94 856.98c22.04,87.53 89.29,156.52 176.19,180.82 292.99,81.95 521.1,315.7 595.27,610 56.47,224.09 20.77,455.89 -100.58,652.68 -121.24,196.67 -312.52,332.71 -538.59,383.07 -421.43,93.93 -856.33,-153.62 -989.85,-563.44 -100.84,-309.6 -19.39,-643.35 212.51,-871.07 63.77,-62.6 89.53,-154.35 67.69,-240.99l-217.27 -862.2c-6.35,-25.19 -16.58,-49.27 -30.3,-71.36l-334.96 -538.79c-135.76,-218.42 -372.25,-348.74 -635.26,-348.74 -0.17,0 -0.33,0 -0.53,0 -272.05,0 -544.42,-26.6 -809.56,-79.06 -252.74,-50.05 -508.33,30.66 -683.7,215.74l-442.87 467.36c-17.88,18.9 -32.75,40.4 -44.05,63.81l-495.74 1028.56c-33.58,69.68 -33.25,150.96 0.9,220.34 86.85,176.44 87.87,378.9 2.75,555.48 -76.82,159.38 -212.14,276.39 -381.02,329.5 -168.75,53.07 -347.09,34.18 -502.22,-53.11 -272.83,-153.54 -393.5,-500.81 -274.74,-790.55 79.2,-193.2 241.03,-331.07 444.01,-378.3 74.17,-17.25 136.57,-67.19 169.64,-135.8l498.96 -1035.16c11.27,-23.42 18.9,-48.44 22.48,-74.17l97.76 -694.95c30.3,-215.27 -54.92,-433.29 -222.31,-569.01 -377.06,-305.78 -695.41,-670.65 -946.27,-1084.56 -109.9,-181.31 -311.17,-295.23 -525.33,-297.25l-693.74 -6.61c-26.46,-0.34 -52.7,3.66 -77.88,11.58l-759.55 238.94c-94.98,29.89 -163.4,112.95 -174.55,211.88 -43.68,388.15 -312.38,714.63 -684.58,831.71 -513.28,161.5 -1066.99,-123.18 -1234.09,-634.66 -66.42,-203.32 -64.28,-419.1 6.28,-623.99 45.22,-131.4 -24.62,-274.58 -156.02,-319.79 -131.43,-45.29 -274.59,24.66 -319.79,156.02 -106.44,309.29 -109.5,635.73 -8.78,944.03 204.43,625.73 791.84,1026.71 1419.84,1026.68 147.07,0 296.49,-22.01 443.58,-68.3 508.21,-159.99 888.56,-578.1 1005.61,-1089.78l575.18 -180.96 653.88 6.21c41.26,0.41 79.51,21.44 99.77,54.92 280.94,463.57 637.47,872.24 1059.66,1214.61 31.11,25.18 46.81,66.62 40.96,108.08l-92.28 656.13 -433.53 899.46c-303.59,107.44 -550.68,340.49 -674.35,642.12 -216.91,529.08 -4.72,1139.56 493.57,1419.94 277.49,156.18 597.15,189.81 899.87,94.6 298.49,-93.82 547.61,-309.26 683.43,-591.05 134.05,-278.12 149.14,-591.78 45.66,-878.14l429.42 -890.92 415.91 -438.89c55.92,-59.05 138.41,-84.54 220.76,-68.23 297.22,58.82 602.46,88.66 910.17,88.66l0.22 -0.04c85.27,0 162.06,41.57 205.33,111.25l314.27 505.47 174.7 693.31c-290.9,355.05 -382.59,831.18 -237.77,1275.82 182.5,560.33 717.79,930.43 1290.16,930.41 95.27,0 191.65,-10.27 287.53,-31.6 359.81,-80.14 664.38,-296.82 857.54,-610.17 193.23,-313.46 250.09,-682.71 160.12,-1039.66 -105.77,-419.8 -407.92,-762.17 -804.74,-922.88l-173.06 -686.9 41.12 -656.69c3.06,-48.8 30.7,-92.86 72.09,-114.93 374.31,-199.63 720.31,-449.69 1028.42,-743.22 32.45,-30.9 75.28,-45.63 117.55,-40.53l283.7 34.49 408.99 274.4c72.63,295 259.31,547.9 524.52,705.31 494.96,293.69 1131.78,170.54 1481.29,-286.56 193.26,-252.7 271.25,-564.1 219.63,-876.9 -50.9,-308.42 -228.92,-585.18 -488.44,-759.28 -268.33,-180.01 -600.04,-235.93 -910.25,-158.29l-342.71 -229.93 -147.63 -264.01c-17.55,-31.4 -19.84,-69.62 -6.28,-104.83 126.87,-329.46 216,-674 264.91,-1024.07 5.98,-42.77 31.37,-78.83 67.87,-96.45l455.72 -219.86 447.41 -39.51c310.97,514.7 865.85,802.79 1458.55,743.32 109.4,-10.97 218.25,-34.12 323.62,-68.77 131.99,-43.45 203.76,-185.64 160.31,-317.66 -43.45,-132.1 -185.67,-203.83 -317.66,-160.42l0.03 0z"/>
    <path class="fil0" d="M9075.86 4870.7c-263.78,-61.95 -535.73,-93.36 -808.33,-93.36 -1942.52,0 -3522.92,1580.36 -3522.92,3522.91 0,1942.55 1580.36,3522.92 3522.92,3522.92 1942.55,0 3522.92,-1580.36 3522.92,-3522.92 0,-1214.57 -613.53,-2328 -1641.15,-2978.53 -117.43,-74.35 -272.89,-39.38 -347.17,78 -74.34,117.41 -39.37,272.83 78.03,347.16 881.08,557.74 1407.09,1512.3 1407.09,2553.36 0,1665.07 -1354.63,3019.74 -3019.73,3019.74 -1665.11,0 -3019.74,-1354.63 -3019.74,-3019.74 0,-1665.1 1354.63,-3019.73 3019.74,-3019.73 233.91,0 467.15,26.93 693.3,80.04 135.29,31.87 270.68,-52.13 302.45,-187.38 31.78,-135.29 -52.16,-270.68 -187.42,-302.49l0.02 0.01z"/>
    <path class="fil0" d="M2763.18 2604.43c652.44,0 1183.22,-530.78 1183.22,-1183.22 0,-652.44 -530.78,-1183.22 -1183.22,-1183.22 -652.44,0 -1183.22,530.8 -1183.22,1183.25 0,652.4 530.78,1183.17 1183.22,1183.17l0 0.02zm0 -1863.19c374.94,0 680.02,305.07 680.02,680.02 0,374.94 -305.07,680.02 -680.02,680.02 -374.94,0 -680.02,-305.07 -680.02,-680.02 0,-374.94 305.07,-680.02 680.02,-680.02z"/>
    <path class="fil0" d="M2508.54 12834.33c-478.04,0 -866.97,388.89 -866.97,866.93 0,478.04 388.89,866.97 866.97,866.97 478.03,0 866.93,-388.9 866.93,-866.97 0,-478 -388.9,-866.93 -866.93,-866.93zm0 1230.7c-200.58,0 -363.78,-163.16 -363.78,-363.77 0,-200.57 163.17,-363.74 363.78,-363.74 200.57,0 363.73,163.17 363.73,363.74 0,200.61 -163.16,363.77 -363.73,363.77z"/>
    <path class="fil0" d="M13806.5 13554.16c-638.49,0 -1157.95,519.43 -1157.95,1157.94 0,638.53 519.43,1157.95 1157.95,1157.95 638.52,0 1157.94,-519.43 1157.94,-1157.95 0,-638.52 -519.46,-1157.94 -1157.94,-1157.94zm0 1812.66c-361.03,0 -654.76,-293.69 -654.76,-654.76 0,-361.06 293.69,-654.75 654.76,-654.75 361.06,0 654.76,293.68 654.76,654.75 0,361.06 -293.73,654.76 -654.76,654.76z"/>
    <path class="fil0" d="M8359.95 7398.11c0,-604.66 -491.93,-1096.59 -1096.59,-1096.59 -604.66,0 -1096.59,491.93 -1096.59,1096.59 0,604.66 491.93,1096.59 1096.59,1096.59 604.66,0 1096.59,-491.96 1096.59,-1096.59zm-1096.59 593.39c-327.2,0 -593.39,-266.19 -593.39,-593.39 0,-327.21 266.19,-593.39 593.39,-593.39 327.21,0 593.39,266.18 593.39,593.39 0,327.2 -266.18,593.39 -593.39,593.39z"/>
    <path class="fil0" d="M7941.7 10849.41c455.86,0 826.75,-370.89 826.75,-826.75 0,-455.87 -370.89,-826.76 -826.75,-826.76 -455.86,0 -826.75,370.89 -826.75,826.76 0,455.88 370.85,826.75 826.75,826.75zm0 -1150.27c178.4,0 323.55,145.15 323.55,323.55 0,178.41 -145.15,323.56 -323.55,323.56 -178.41,0 -323.56,-145.15 -323.56,-323.56 0,-178.4 145.13,-323.55 323.56,-323.55z"/>
    <path class="fil0" d="M9013.1 8300.26c0,405.03 329.53,734.56 734.56,734.56 405.03,0 734.57,-329.53 734.57,-734.56 0,-405.03 -329.54,-734.57 -734.57,-734.57 -405.03,0 -734.56,329.5 -734.56,734.57zm734.56 -231.41c127.58,0 231.37,103.79 231.37,231.37 0,127.57 -103.79,231.37 -231.37,231.37 -127.57,0 -231.36,-103.8 -231.36,-231.37 0,-127.58 103.75,-231.37 231.36,-231.37z"/>
   </g>
  </g>
 </g>
</svg>
