<?xml version="1.0" encoding="UTF-8"?>
<!DOCTYPE svg PUBLIC "-//W3C//DTD SVG 1.1//EN" "http://www.w3.org/Graphics/SVG/1.1/DTD/svg11.dtd">
<!-- Creator: CorelDRAW 2019 (64-Bit Wersja próbna) -->
<svg xmlns="http://www.w3.org/2000/svg" xml:space="preserve" width="190mm" height="175.829mm" version="1.1" style="shape-rendering:geometricPrecision; text-rendering:geometricPrecision; image-rendering:optimizeQuality; fill-rule:evenodd; clip-rule:evenodd"
viewBox="0 0 18987.61 17571.42"
 xmlns:xlink="http://www.w3.org/1999/xlink"
 xmlns:xodm="http://www.corel.com/coreldraw/odm/2003"
 enable-background="new 0 0 24 24">
 <defs>
  <style type="text/css">
   <![CDATA[
    .fil0 {fill:white}
   ]]>
  </style>
 </defs>
 <g id="Warstwa_x0020_1">
  <metadata id="CorelCorpID_0Corel-Layer"/>
  <path class="fil0" d="M18029.18 0.01l-13892.01 0c-528.47,0 -958.28,429.96 -958.28,958.43l0 1454.87 -2220.47 -0.01c-528.47,0 -958.43,429.96 -958.43,958.43l0 12332.27c0,1024.91 830.51,1859.62 1854.11,1867.01l3.77 -0.01c3.33,0.14 6.38,0.43 9.7,0.43l9839.01 0c153.56,0 278.14,-124.44 278.14,-278.14 0,-153.56 -124.58,-278.14 -278.14,-278.14l-8510.46 0c333.04,-337.39 539.04,-800.67 539.04,-1311.16l0 -6504.25c0,-153.56 -124.58,-278.14 -278.14,-278.14 -153.7,0 -278.14,124.58 -278.14,278.14l0 6504.25c0,720.55 -584.38,1307.11 -1304.21,1311.02 -2.32,0 -4.64,-0.29 -7.1,-0.29 -723.02,-0.14 -1311.3,-588.15 -1311.3,-1310.73l0 -12332.27c0,-221.65 180.35,-402.14 402.14,-402.14l2220.47 0 0 5191.78c0,153.7 124.44,278.13 278.14,278.13 153.56,0 278.14,-124.43 278.14,-278.13l0 -7202.93c0,-221.79 180.35,-402.14 402,-402.14l13892.01 0c221.79,0 402.14,180.35 402.14,402.14l0 14745.55c0,723.02 -588.3,1311.16 -1311.3,1311.16l-4375.04 0c-153.7,0 -278.14,124.58 -278.14,278.14 0,153.7 124.44,278.14 278.14,278.14l4375.05 0c1029.84,0 1867.58,-837.74 1867.58,-1867.44l0 -14745.55c0,-528.47 -429.96,-958.43 -958.43,-958.43l0 0.01zm0 0z"/>
  <path class="fil0" d="M11577.67 6523.53l5162.22 0c153.56,0 278.14,-124.44 278.14,-278.14 0,-153.7 -124.58,-278.14 -278.14,-278.14l-5162.22 0c-153.56,0 -278.14,124.44 -278.14,278.14 0,153.7 124.58,278.14 278.14,278.14zm0 0z"/>
  <path class="fil0" d="M11577.67 8810.91l5162.22 0c153.56,0 278.14,-124.58 278.14,-278.14 0,-153.69 -124.58,-278.13 -278.14,-278.13l-5162.22 0c-153.56,0 -278.14,124.44 -278.14,278.13 0,153.56 124.58,278.14 278.14,278.14zm0 0z"/>
  <path class="fil0" d="M11577.67 11098.17l5162.22 0c153.56,0 278.14,-124.58 278.14,-278.14 0,-153.7 -124.58,-278.14 -278.14,-278.14l-5162.22 0c-153.56,0 -278.14,124.44 -278.14,278.14 0,153.56 124.58,278.14 278.14,278.14zm0 0z"/>
  <path class="fil0" d="M5713.87 13385.43l11026.02 0c153.56,0 278.14,-124.44 278.14,-278.14 0,-153.56 -124.58,-278.14 -278.14,-278.14l-11026.02 0c-153.56,0 -278.14,124.58 -278.14,278.14 0,153.7 124.58,278.14 278.14,278.14zm0 0z"/>
  <path class="fil0" d="M5713.87 15672.84l11026.02 0c153.56,0 278.14,-124.44 278.14,-278.14 0,-153.7 -124.58,-278.14 -278.14,-278.14l-11026.02 0c-153.56,0 -278.14,124.44 -278.14,278.14 0,153.7 124.58,278.14 278.14,278.14zm0 0z"/>
  <path class="fil0" d="M5442.83 4543.96l0 -2939c0,-60.41 28.68,-106.47 86.05,-138.06 57.36,-31.73 126.9,-47.66 208.31,-47.66 108.79,0 191.66,19.7 249.17,58.96 57.22,39.25 120.67,123.86 190.21,253.51l873.96 1689.26 0 -1820.5c0,-60.41 28.68,-105.6 86.05,-135.88 57.22,-30.13 126.76,-45.34 208.31,-45.34 81.56,0 150.95,15.21 208.31,45.34 57.36,30.28 86.05,75.47 86.05,135.88l0 2943.49c0,57.51 -29.55,102.71 -88.36,135.88 -58.81,33.32 -127.48,49.84 -206,49.84 -160.08,0 -273.36,-61.86 -339.71,-185.72l-973.64 -1820.5 0 1820.5c0,57.51 -29.41,102.71 -88.22,135.88 -58.81,33.32 -127.63,49.84 -206.15,49.84 -81.42,0 -150.95,-16.52 -208.17,-49.84 -57.51,-33.18 -86.19,-78.37 -86.19,-135.88zm0 0z"/>
  <path class="fil0" d="M8182.64 4543.96l0 -2939c0,-57.36 25.64,-102.56 77.07,-135.88 51.29,-33.18 111.55,-49.84 181.07,-49.84l1612.19 0.01c60.26,0 106.47,25.78 138.06,77.07 31.73,51.29 47.66,110.24 47.66,176.58 0,72.43 -16.66,134.43 -49.84,185.72 -33.32,51.43 -78.66,76.92 -135.88,76.92l-1281.61 0 0 905.69 688.39 0c57.22,0 102.56,23.46 135.88,70.25 33.18,46.79 49.84,101.84 49.84,165.29 0,57.36 -15.94,109.37 -47.66,156.31 -31.73,46.79 -77.65,70.11 -138.06,70.11l-688.39 0 0 910.33 1281.61 0c57.22,0 102.56,25.64 135.88,76.92 33.18,51.43 49.84,113.29 49.84,185.72 0,66.35 -15.94,125.31 -47.66,176.58 -31.58,51.43 -77.79,76.92 -138.06,76.92l-1612.19 0.01c-69.52,0 -129.79,-16.52 -181.07,-49.69 -51.43,-33.32 -77.07,-78.52 -77.07,-136.03zm0 0z"/>
  <path class="fil0" d="M10533.05 1654.79c0,-63.45 40.7,-118.5 122.26,-165.29 81.42,-46.79 166.01,-70.25 253.51,-70.25 108.79,0 173.7,39.25 194.69,117.77l715.62 2454.58 384.9 -1575.97c27.09,-108.79 123.71,-163.11 289.73,-163.11 163.11,0 258.15,54.32 285.38,163.11l384.9 1575.97 715.48 -2454.58c21.15,-78.52 86.05,-117.77 194.84,-117.77 87.49,0 171.96,23.46 253.51,70.25 81.56,46.79 122.27,101.84 122.27,165.29 0,18.11 -3.04,36.22 -8.98,54.32l-896.71 2848.46c-45.34,132.98 -173.7,199.33 -384.9,199.33 -90.54,0 -172.1,-17.39 -244.53,-52.16 -72.43,-34.63 -116.32,-83.74 -131.39,-147.18l-289.73 -1222.65 -294.37 1222.65c-15.21,63.45 -58.96,112.56 -131.39,147.18 -72.43,34.77 -153.99,52.16 -244.53,52.16 -93.58,0 -176.58,-17.39 -249.02,-52.16 -72.57,-34.63 -117.77,-83.74 -135.88,-147.18l-896.71 -2848.46c-6.09,-18.11 -8.98,-36.22 -8.98,-54.32l0.01 0.01zm0 0z"/>
  <path class="fil0" d="M14599.68 4208.89c0,-69.39 26.36,-139.65 79.24,-210.63 52.73,-70.83 112.42,-106.33 178.9,-106.33 39.11,0 83.74,18.83 133.56,56.49 49.84,37.52 98.08,79.24 144.87,124.58 46.79,45.49 114.01,87.06 201.65,124.73 87.49,37.67 184.12,56.35 289.73,56.35 145.01,0 265.68,-33.18 362.3,-99.67 96.63,-66.35 144.87,-164.42 144.87,-294.22 0,-90.68 -26.36,-171.38 -79.24,-242.36 -52.73,-70.83 -122.26,-129.8 -208.31,-176.58 -85.9,-46.79 -180.35,-92.13 -282.92,-135.88 -102.71,-43.75 -206.15,-92.86 -310.3,-147.18 -104.16,-54.32 -199.19,-115.45 -285.23,-183.4 -86.05,-67.95 -155.59,-158.48 -208.31,-271.76 -52.88,-113.14 -79.24,-242.21 -79.24,-387.08 0,-162.39 32.45,-305.81 97.35,-429.81 64.9,-124.15 151.67,-220.63 260.32,-289.58 108.65,-68.96 224.83,-119.51 348.69,-151.67 123.71,-32.16 255.1,-48.39 394.03,-48.39 78.37,0 161.37,5.51 249.02,16.37 87.49,10.86 180.35,28.68 278.58,53.46 98.08,24.77 178.03,63.6 239.89,116.18 61.86,52.73 92.86,114.74 92.86,186.15 0,67.22 -21.15,136.75 -63.31,208.6 -42.3,71.85 -99.67,107.63 -172.1,107.63 -27.23,0 -101.26,-28.68 -221.94,-86.05 -120.82,-57.36 -255.1,-86.05 -403.01,-86.05 -163.11,0 -289.15,31 -378.09,92.86 -89.09,62 -133.71,147.18 -133.71,255.83 0,87.64 36.22,163.84 108.79,228.74 72.43,64.9 162.24,117.77 269.44,158.48 107.05,40.7 223.38,92.13 348.69,153.99 125.16,61.86 241.49,129.08 348.69,201.51 107.05,72.43 197.01,177.31 269.44,314.64 72.43,137.48 108.65,298.28 108.65,482.4 0,309.58 -98.95,548.6 -296.54,716.78 -197.88,168.19 -458.2,252.36 -781.25,252.36 -286.83,0 -532.81,-58.96 -738.08,-176.73 -205.42,-117.48 -307.98,-245.83 -307.98,-384.76l-0.02 0.02zm0 0z"/>
  <g id="_2609901911504">
   <circle class="fil0" cx="6354.54" cy="10331.22" r="722.54"/>
   <path class="fil0" d="M8040.25 11053.75l962.95 0c0,-1858.7 -1512.49,-3371.2 -3371.2,-3371.41l0 963.38c1327.91,0.21 2408.25,1080.12 2408.25,2408.03z"/>
   <path class="fil0" d="M10689.12 11053.75c0,-2788.58 -2268.54,-5057.12 -5057.12,-5057.12l0 963.17c2257.59,0 4094.16,1836.15 4094.16,4093.95l962.96 0z"/>
  </g>
 </g>
</svg>
