<?xml version="1.0" encoding="UTF-8"?>
<!DOCTYPE svg PUBLIC "-//W3C//DTD SVG 1.1//EN" "http://www.w3.org/Graphics/SVG/1.1/DTD/svg11.dtd">
<!-- Creator: CorelDRAW -->
<svg xmlns="http://www.w3.org/2000/svg" xml:space="preserve" width="200mm" height="200mm" version="1.1" style="shape-rendering:geometricPrecision; text-rendering:geometricPrecision; image-rendering:optimizeQuality; fill-rule:evenodd; clip-rule:evenodd"
viewBox="0 0 20000 20000"
 xmlns:xlink="http://www.w3.org/1999/xlink"
 enable-background="new 0 0 512 512"
 xmlns:xodm="http://www.corel.com/coreldraw/odm/2003">
 <defs>
  <style type="text/css">
   <![CDATA[
    .fil0 {fill:white}
   ]]>
  </style>
 </defs>
 <g id="Warstwa_x0020_1">
  <metadata id="CorelCorpID_0Corel-Layer"/>
  <g id="_105553361195904">
   <g id="_2610014160208">
    <path class="fil0" d="M11543.9 13534.58l0 -2592.97c0,-82.45 -66.8,-149.24 -149.31,-149.24 -82.45,0 -149.25,66.79 -149.25,149.24l0 2668.36c0,48.32 23.32,93.56 62.66,121.56 557.48,397.18 890.25,1042.33 890.25,1725.81 0,1167.49 -949.84,2117.4 -2117.4,2117.4 -1167.49,0 -2117.4,-949.91 -2117.4,-2117.4 0,-683.48 332.84,-1328.62 890.31,-1725.81 39.27,-28 62.66,-73.24 62.66,-121.56l0 -4325.83c0,-642.07 522.35,-1164.5 1164.43,-1164.5 642.06,0 1164.49,522.43 1164.49,1164.5l0 1060.27c0,82.45 66.8,149.32 149.25,149.32 82.52,0 149.31,-66.87 149.31,-149.32l0 -1060.27c0,-806.73 -656.32,-1463.06 -1463.05,-1463.06 -806.73,0 -1463.06,656.33 -1463.06,1463.06l0 4250.44c-598.05,455.94 -952.9,1168.95 -952.9,1922.76 0,1332.14 1083.81,2415.97 2415.97,2415.97 1332.22,0 2416.03,-1083.82 2416.03,-2415.97 0,-753.89 -354.85,-1466.82 -952.97,-1922.76l-0.01 0 -0.01 0zm0 0z"/>
    <path class="fil0" d="M10080.85 16778.52c-272.26,0 -533.86,-82.53 -756.57,-238.67 -67.49,-47.4 -160.67,-31.07 -207.99,36.5 -47.31,67.49 -30.98,160.59 36.58,207.92 273.18,191.57 594.06,292.8 927.98,292.8 893.16,0 1619.82,-726.58 1619.82,-1619.75 0,-522.88 -254.77,-1016.47 -681.42,-1320.48l-271.56 -193.43 0 -4659.28c0,-367.74 -299.1,-666.84 -666.84,-666.84 -367.66,0 -666.84,299.1 -666.84,666.84l0 4659.28 -271.49 193.43c-426.71,304 -681.41,797.6 -681.41,1320.48 0,324.11 95.79,637.1 277.09,905.21 46.17,68.26 138.97,86.2 207.3,40.03 68.33,-46.17 86.2,-138.97 40.03,-207.3 -147.71,-218.49 -225.86,-473.73 -225.86,-737.94 0,-426.56 207.91,-829.27 556.1,-1077.29l334.15 -238.13c39.34,-28 62.73,-73.32 62.73,-121.56l0 -576.42 736.47 0.01 0 576.42c0,48.24 23.32,93.56 62.66,121.56l334.23 238.12c348.18,248.03 556.02,650.74 556.02,1077.3 0,728.5 -592.68,1321.19 -1321.18,1321.19zm368.27 -5914.52l-736.48 0 0 -842.08 736.48 0 0 842.08zm-736.48 298.56l736.48 0 0 842.08 -736.48 0 0 -842.08zm368.21 -2246.7c203.08,0 368.27,165.2 368.27,368.28l0 439.21 -736.47 0.01 0 -439.22c0,-203.07 165.2,-368.27 368.2,-368.27l0 -0.01zm-368.21 4229.51l0 -842.09 736.48 0.01 0 842.09 -736.48 -0.01zm0 0z"/>
    <path class="fil0" d="M14370.86 11159.88c-104.15,0 -161.05,39.96 -168.87,118.42 -22.48,176 -56.38,441.82 -470.9,441.82 -339.75,0 -504.94,-172.56 -504.94,-527.56l0 -1139.5c0,-350.1 166.11,-527.64 493.6,-527.64 380.92,0 472.5,231.61 482.24,425.95 4.21,76.84 64.26,119.18 168.87,119.18 106.99,0 168.95,-30.06 168.95,-184.06 0,-393.74 -340.36,-668.69 -827.66,-668.69 -523.58,0 -823.91,304.47 -823.91,835.26l0 1139.5c0,285.29 81.53,502.57 242.35,645.75 139.12,123.93 338.91,189.43 577.8,189.43 489.52,0 831.42,-279.62 831.42,-680.03 0,-156.38 -64.66,-187.82 -168.95,-187.82l0 -0.01zm0 0z"/>
    <path class="fil0" d="M13099.38 8791.85c0,-268.88 -218.81,-487.69 -487.69,-487.69 -268.96,0 -487.68,218.81 -487.68,487.69 0,268.88 218.73,487.68 487.68,487.68 268.88,0 487.69,-218.8 487.69,-487.68zm-487.69 189.12c-104.3,0 -189.12,-84.9 -189.12,-189.12 0,-104.3 84.82,-189.12 189.12,-189.12 104.23,0 189.05,84.82 189.05,189.12 0,104.23 -84.82,189.12 -189.05,189.12zm0 0z"/>
   </g>
  </g>
  <g>
   <path class="fil0" d="M14475.84 4743.42l856.33 856.29 -856.33 -856.29zm-9773.99 856.27l856.3 -856.27 -856.3 856.27zm9773.99 -856.27l856.33 856.29 4104.31 4104.31c276.18,275.72 428.17,643.09 428.17,1033.56 0,390.5 -151.99,757.41 -428.17,1033.58l-250.9 250.9c-275.73,276.18 -643.08,428.17 -1033.58,428.17 -196.51,0 -387.03,-38.96 -563.45,-112.18l-635.37 5400.35c-76.21,646.53 -624.68,1134.21 -1275.48,1134.21l-11321.79 0.02c-650.37,0 -1198.83,-487.67 -1275.48,-1134.21l-636.25 -5409.36c-530.91,210.65 -1180.01,108.74 -1595.75,-307.02l-250.91 -250.89c-276.16,-275.74 -428.16,-643.09 -428.16,-1033.58 0,-390.48 152,-757.85 428.16,-1033.56l4104.33 -4104.32 856.3 -856.27 2945.32 -2945.33c834.47,-834.49 2192.57,-834.49 3027.06,0l2945.31 2945.33zm1627.43 12894.38c-25.69,215.79 -208.09,378.49 -425.18,378.49l-11322.2 0c-217.09,0 -399.9,-162.7 -425.18,-378.49l-697.88 -5933 6784.18 -6784.14 6784.14 6784.14 -697.88 5933zm2905.06 -6900.2c0,161.85 -62.96,313.41 -177.27,428.17l-250.9 250.92c-229.06,228.2 -627.25,228.2 -856.33,0l-7404.12 -7404.14c-83.49,-83.5 -193.09,-125.45 -302.7,-125.45 -109.61,0 -219.21,41.95 -302.72,125.45l-7404.14 7404.14c-229.06,228.2 -627.25,228.2 -856.31,0l-250.91 -250.92c-114.32,-114.76 -177.26,-266.32 -177.26,-428.17 0,-161.84 62.96,-313.41 177.26,-428.17l7905.97 -7905.94c500.94,-500.94 1315.29,-500.94 1816.22,0l7905.97 7905.94c114.31,114.76 177.25,266.33 177.24,428.17z"/>
  </g>
 </g>
</svg>
