<?xml version="1.0" encoding="UTF-8"?>
<!DOCTYPE svg PUBLIC "-//W3C//DTD SVG 1.1//EN" "http://www.w3.org/Graphics/SVG/1.1/DTD/svg11.dtd">
<!-- Creator: CorelDRAW -->
<svg xmlns="http://www.w3.org/2000/svg" xml:space="preserve" width="200mm" height="200mm" version="1.1" style="shape-rendering:geometricPrecision; text-rendering:geometricPrecision; image-rendering:optimizeQuality; fill-rule:evenodd; clip-rule:evenodd"
viewBox="0 0 20000 20000"
 xmlns:xlink="http://www.w3.org/1999/xlink"
 xmlns:xodm="http://www.corel.com/coreldraw/odm/2003"
 enable-background="new 0 0 512 512">
 <defs>
  <style type="text/css">
   <![CDATA[
    .fil0 {fill:white}
    .fil1 {fill:white;fill-rule:nonzero}
   ]]>
  </style>
 </defs>
 <g id="Warstwa_x0020_1">
  <metadata id="CorelCorpID_0Corel-Layer"/>
  <path class="fil0" d="M16276.89 8877.58l0 -1250.88c0,-292.59 -238.05,-530.65 -530.65,-530.65l-1294.26 0c-292.59,0 -530.65,238.05 -530.65,530.65l0 916.14c138.68,-10.48 278.78,-15.85 420.14,-15.85 41.27,0 82.39,0.67 123.45,1.57l0 -888.93 1268.37 0 0 1065.19c185.19,48.34 366.53,106.18 543.6,172.76zm-5518.26 574.01l530.1 0c398.03,-266.1 832.65,-481.75 1294.8,-637.59l0 -1187.31c0,-292.59 -238.05,-530.65 -530.65,-530.65l-1294.25 0c-292.59,0 -530.65,238.05 -530.65,530.65l0 1294.25c0,292.59 238.05,530.65 530.65,530.65zm12.93 -1811.97l1268.37 0 0 1268.38 -1268.37 0.01 0 -1268.39zm-6105.38 6180.47l-1294.26 0c-292.59,0 -530.65,238.05 -530.65,530.65l0 1294.25c0,292.59 238.04,530.65 530.65,530.65l1294.26 0c292.58,0 530.65,-238.05 530.65,-530.65l0 -1294.25c0,-292.59 -238.05,-530.65 -530.65,-530.65zm-12.95 1811.95l-1268.37 0 0 -1268.37 1268.37 0 0 1268.37zm12.95 -8535.99l-1294.26 0c-292.59,0 -530.65,238.05 -530.65,530.65l0 1294.25c0,292.59 238.04,530.65 530.65,530.65l1294.26 0c292.58,0 530.65,-238.05 530.65,-530.65l0 -1294.25c0,-292.63 -238.05,-530.65 -530.65,-530.65zm-12.95 1811.97l-1268.37 0 0 -1268.37 1268.37 -0.02 0 1268.39zm11893.61 -7326.86l-1162.06 0 0 -415.56c0,-455.74 -370.77,-826.51 -826.51,-826.51l-124.81 0.01c-455.7,0 -826.47,370.77 -826.47,826.52l0 415.56 -8095.85 -0.02 0 -415.56c0,-455.74 -370.77,-826.51 -826.51,-826.51l-124.79 0.01c-455.75,0 -826.52,370.77 -826.52,826.52l0 415.56 -1162.01 -0.02c-750.34,0 -1360.79,610.45 -1360.79,1360.79l0 14592.66c0,749.37 609.62,1358.98 1358.98,1358.98l9207.99 -0.01c-295.77,-156.15 -575.73,-338.2 -836.52,-543.59l-8371.48 0c-449.62,0 -815.38,-365.75 -815.38,-815.38l0 -1.69c227.72,171.59 510.79,273.49 817.23,273.49l7774.65 -0.01c-161.93,-171.12 -312.8,-352.76 -451.89,-543.56l-7322.77 -0.01c-450.6,0 -817.2,-366.59 -817.2,-817.22l0 -10436.74 2941.65 0c150.11,0 271.8,-121.7 271.8,-271.8 0,-150.11 -121.69,-271.8 -271.8,-271.8l-2941.68 0 0 -2523.33c0,-450.6 366.59,-817.2 817.2,-817.2l1162.04 0 0 799.14c0,455.75 370.77,826.52 826.52,826.52 150.1,0 271.8,-121.7 271.8,-271.8 0,-150.1 -121.7,-271.8 -271.8,-271.8 -156.01,0 -282.92,-126.91 -282.92,-282.92l0 -799.14 9330.07 0 0 799.14c0,455.75 370.77,826.52 826.52,826.52 150.1,0 271.79,-121.7 271.79,-271.8 0,-150.1 -121.69,-271.8 -271.79,-271.8 -156.01,0 -282.92,-126.91 -282.92,-282.92l0 -799.14 2396.27 0c450.59,0 817.2,366.59 817.2,817.2l0 2523.33 0 0.01 -11581.12 0c-150.1,0 -271.8,121.69 -271.8,271.8 0,150.1 121.7,271.8 271.8,271.8l11581.12 0 0 3422.88c189.72,125.04 371.25,261.48 543.6,408.41l0 -6898.24c-0.04,-750.33 -610.49,-1360.78 -1360.85,-1360.78l0 0.01 0.01 0zm647.45 17149.04c54.27,-29.42 106.28,-62.49 155.8,-98.77 -51.42,33.66 -103.21,66.8 -155.8,98.77zm-3043.7 -17564.6c0,-156 126.92,-282.91 282.92,-282.91l124.81 0c156,0 282.92,126.91 282.92,282.91l0 415.56 -690.65 0 0 -415.56zm-9873.63 0c0,-156 126.91,-282.91 282.92,-282.91l124.81 0c156.01,0 282.92,126.91 282.92,282.91l0 415.56 -690.61 0 0 -415.56 -0.04 0zm389.23 9292.48l-1294.26 0c-292.59,0 -530.65,238.05 -530.65,530.65l0 1294.24c0,292.59 238.04,530.66 530.65,530.66l1294.26 0c292.58,0 530.65,-238.05 530.65,-530.66l0 -1294.24c0,-292.63 -238.05,-530.65 -530.65,-530.65zm-12.95 1811.95l-1268.37 0 0 -1268.37 1268.37 0 0 1268.37zm2412.05 -2818.43l1294.24 0c292.59,0 530.66,-238.05 530.66,-530.65l0 -1294.25c0,-292.59 -238.05,-530.65 -530.66,-530.65l-1294.24 0c-292.59,0 -530.65,238.05 -530.65,530.65l0 1294.25c0,292.59 238.05,530.65 530.65,530.65zm12.94 -1811.97l1268.37 0 0 1268.38 -1268.37 0.01 0 -1268.39zm-12.94 5173.99l1294.24 0c292.59,0 530.66,-238.05 530.66,-530.66l0 -1294.24c0,-292.59 -238.05,-530.65 -530.66,-530.65l-1294.24 0c-292.59,0 -530.65,238.05 -530.65,530.65l0 1294.24c0,292.59 238.05,530.66 530.65,530.66zm12.94 -1811.97l1268.37 0 0 1268.37 -1268.37 0 0 -1268.37zm-12.94 5173.99l1294.24 0c292.59,0 530.66,-238.05 530.66,-530.65l0 -885.12c-27.46,-206.02 -43.36,-415.68 -47.39,-628.26 -83.57,-183.58 -268.76,-311.52 -483.27,-311.52l-1294.24 0c-292.59,0 -530.65,238.05 -530.65,530.65l0 1294.25c0,292.59 238.05,530.65 530.65,530.65zm12.94 -1811.98l1268.37 0 0 1268.37 -1268.37 0 0 -1268.37z"/>
  <g id="_105553361106976">
   <path class="fil1" d="M18423.77 11629.48c-211.27,102.21 -299.68,356.44 -197.46,567.6 279.23,576.84 420.76,1198.61 420.76,1848.7 0,2343.57 -1906.71,4250.28 -4250.27,4250.28 -2343.57,0 -4250.28,-1906.71 -4250.28,-4250.28 0,-2343.56 1906.71,-4250.27 4250.28,-4250.27 971.15,0 1883.46,317.11 2638.57,916.98 183.15,146.21 450.98,115.59 597.18,-68.18 146.21,-183.66 115.59,-451.17 -68.28,-597.17 -893.94,-710.49 -2018.87,-1101.69 -3167.46,-1101.69 -2812.18,0 -5100.33,2288.15 -5100.33,5100.33 0,2812.17 2288.15,5100.32 5100.33,5100.32 2812.17,0 5100.32,-2288.15 5100.32,-5100.32 0,-779.29 -170.18,-1526.1 -505.76,-2218.84 -102,-211.69 -357.06,-299.89 -567.61,-197.47l0.01 0.01zm0 0z"/>
   <path class="fil1" d="M14396.81 10645.56c-234.62,0 -425.03,190.41 -425.03,425.02l0 2975.2c0,234.61 190.41,425.02 425.03,425.02l2125.13 0.01c234.61,0 425.02,-190.41 425.02,-425.03 0,-234.61 -190.41,-425.02 -425.02,-425.02l-1700.11 0 0 -2550.17c0,-234.61 -190.41,-425.02 -425.02,-425.02l0 -0.01zm0 0z"/>
  </g>
 </g>
</svg>
