<?xml version="1.0" encoding="UTF-8"?>
<!DOCTYPE svg PUBLIC "-//W3C//DTD SVG 1.1//EN" "http://www.w3.org/Graphics/SVG/1.1/DTD/svg11.dtd">
<!-- Creator: CorelDRAW 2019 (64-Bit Wersja próbna) -->
<svg xmlns="http://www.w3.org/2000/svg" xml:space="preserve" width="142.398mm" height="185.515mm" version="1.1" style="shape-rendering:geometricPrecision; text-rendering:geometricPrecision; image-rendering:optimizeQuality; fill-rule:evenodd; clip-rule:evenodd"
viewBox="0 0 14227.37 18535.37"
 xmlns:xlink="http://www.w3.org/1999/xlink"
 xmlns:xodm="http://www.corel.com/coreldraw/odm/2003"
 enable-background="new 0 0 512 512">
 <defs>
  <style type="text/css">
   <![CDATA[
    .fil0 {fill:white}
   ]]>
  </style>
 </defs>
 <g id="Warstwa_x0020_1">
  <metadata id="CorelCorpID_0Corel-Layer"/>
  <g id="_2609898469072">
   <path class="fil0" d="M13955.85 6058.89c149.99,0 271.52,-121.52 271.52,-271.51l0 -1895.67c0,-449.12 -365.42,-814.54 -814.54,-814.54l-271.53 -0.02 0 -724.04c0,-449.12 -365.42,-814.54 -814.54,-814.54l-271.51 0.01 0 -724.04c0,-449.12 -365.42,-814.54 -814.54,-814.54l-10426.15 0c-449.16,0 -814.54,365.42 -814.54,814.54l0 1497.49c0,149.99 121.57,271.51 271.52,271.51 149.95,0 271.51,-121.52 271.51,-271.51l0 -1497.49c0,-149.73 121.79,-271.52 271.52,-271.52l10426.13 0c149.73,0 271.51,121.79 271.51,271.52l0 13829.12c0,149.73 -121.78,271.52 -271.51,271.52l-10426.15 0c-149.73,0 -271.51,-121.79 -271.51,-271.52l0 -11173.17c0,-149.99 -121.57,-271.52 -271.52,-271.52 -149.94,0 -271.51,121.53 -271.51,271.52l0 11173.17c0,449.12 365.38,814.54 814.54,814.54l271.53 0.02 0 724.04c0,449.12 365.38,814.54 814.54,814.54l271.51 -0.01 0 724.04c0,449.12 365.38,814.54 814.54,814.54l10426.15 0c449.11,0 814.53,-365.42 814.53,-814.54l0 -10781.69c0,-149.99 -121.52,-271.51 -271.51,-271.51 -149.99,0 -271.51,121.52 -271.51,271.51l0 10781.69c0,149.73 -121.79,271.51 -271.52,271.51l-10426.13 0c-149.73,0 -271.51,-121.78 -271.51,-271.51l0 -724.04 6710.63 0c149.99,0 271.51,-121.53 271.51,-271.52 0,-149.99 -121.52,-271.51 -271.51,-271.51l-7525.17 0.01c-149.71,0 -271.52,-121.78 -271.52,-271.51l0 -724.05 9611.61 0.02c449.12,0 814.54,-365.42 814.54,-814.54l0 -12562.06 271.51 -0.01c149.73,0 271.52,121.78 271.52,271.51l0 13829.13c0,149.73 -121.79,271.51 -271.52,271.51l-1749.24 0c-149.99,0 -271.52,121.53 -271.52,271.52 0,149.99 121.53,271.51 271.52,271.51l1749.24 -0.01c449.12,0 814.54,-365.42 814.54,-814.54l0 -12562.06 271.52 0c149.72,0 271.51,121.79 271.51,271.52l0 1895.67c0,149.99 121.52,271.51 271.51,271.51z"/>
   <path class="fil0" d="M1828.21 4489.03l0 1882.5c0,229.55 186.77,416.32 416.32,416.32l1882.51 0c229.55,0 416.32,-186.77 416.32,-416.32l0 -1400.14 556.42 -474.97c114.03,-97.36 127.58,-268.73 30.2,-382.76 -97.32,-114.07 -268.73,-127.58 -382.81,-30.22l-250.66 213.95c-69.47,-133.36 -208.99,-224.67 -369.51,-224.67l-1882.5 -0.01c-229.52,0 -416.28,186.77 -416.28,416.32l-0.01 0zm543.03 126.71l1629.08 0 0 105.23 -538.75 459.91 -257.25 -278.69c-101.69,-110.12 -273.47,-117 -383.68,-15.35 -110.19,101.73 -117.04,273.47 -15.35,383.68l434.42 470.62c98.93,107.17 264.89,117.05 375.8,22.33l384.82 -328.53 0 809.87 -1629.08 0.02 0 -1629.09 -0.03 0z"/>
   <path class="fil0" d="M9955.53 4507.13l-4344.22 0c-149.95,0 -271.52,121.53 -271.52,271.52 0,149.99 121.57,271.51 271.52,271.51l4344.22 -0.01c149.99,0 271.52,-121.53 271.52,-271.52 0,-149.99 -121.53,-271.51 -271.52,-271.51l0 0.01z"/>
   <path class="fil0" d="M9955.53 5665.6l-4344.22 0c-149.95,0 -271.52,121.52 -271.52,271.51 0,149.99 121.57,271.52 271.52,271.52l4344.22 -0.02c149.99,0 271.52,-121.52 271.52,-271.51 0,-149.99 -121.53,-271.52 -271.52,-271.52l0 0.02z"/>
   <path class="fil0" d="M1828.21 9883.12c0,229.55 186.77,416.32 416.32,416.32l1882.51 0c229.55,0 416.32,-186.77 416.32,-416.32l0 -1882.5c0,-229.55 -186.77,-416.32 -416.32,-416.32l-1882.51 0c-229.55,0 -416.32,186.77 -416.32,416.32l0 1882.5zm543.03 -1755.8l1629.08 0 0 1629.1 -1629.08 0 0 -1629.1z"/>
   <path class="fil0" d="M9955.53 8018.72l-4344.22 0c-149.95,0 -271.52,121.52 -271.52,271.51 0,149.99 121.57,271.52 271.52,271.52l4344.22 -0.02c149.99,0 271.52,-121.52 271.52,-271.51 0,-149.99 -121.53,-271.51 -271.52,-271.51l0 0.01z"/>
   <path class="fil0" d="M9955.53 9177.17l-4344.22 0c-149.95,0 -271.52,121.53 -271.52,271.51 0,149.99 121.57,271.52 271.52,271.52l4344.22 0c149.99,0 271.52,-121.53 271.52,-271.52 0,-149.98 -121.53,-271.51 -271.52,-271.51z"/>
   <path class="fil0" d="M1828.21 13394.7c0,229.56 186.77,416.33 416.32,416.33l1882.51 0c229.55,0 416.32,-186.77 416.32,-416.33l0 -1882.49c0,-229.55 -186.77,-416.32 -416.32,-416.32l-1882.51 0c-229.55,0 -416.32,186.77 -416.32,416.32l0 1882.49zm543.03 -1755.79l1629.08 0 0 1629.09 -1629.08 0 0 -1629.09z"/>
   <path class="fil0" d="M9955.53 11530.31l-4344.22 0c-149.95,0 -271.52,121.52 -271.52,271.51 0,149.99 121.57,271.52 271.52,271.52l4344.22 -0.02c149.99,0 271.52,-121.52 271.52,-271.51 0,-149.99 -121.53,-271.52 -271.52,-271.52l0 0.02z"/>
   <path class="fil0" d="M9955.53 12688.76l-4344.22 0c-149.95,0 -271.52,121.52 -271.52,271.51 0,149.99 121.57,271.52 271.52,271.52l4344.22 0c149.99,0 271.52,-121.53 271.52,-271.52 0,-149.99 -121.53,-271.51 -271.52,-271.51z"/>
   <path class="fil0" d="M8579.86 1285.17l-4995.87 0c-499.05,0 -905.05,406 -905.05,905.05 0,499.05 406.01,905.04 905.05,905.04l4995.87 -0.01c499.05,0 905.04,-406.01 905.04,-905.05 0,-499.05 -406,-905.05 -905.04,-905.05l0 0.02zm0 1267.07l-4995.87 0c-199.62,0 -362.01,-162.41 -362.01,-362.01 0,-199.62 162.4,-362.01 362.01,-362.01l4995.87 -0.02c199.62,0 362.01,162.4 362.01,362.01 0,199.62 -162.4,362.01 -362.01,362.01l0 0.02z"/>
  </g>
 </g>
</svg>
