<?xml version="1.0" encoding="UTF-8"?>
<!DOCTYPE svg PUBLIC "-//W3C//DTD SVG 1.1//EN" "http://www.w3.org/Graphics/SVG/1.1/DTD/svg11.dtd">
<!-- Creator: CorelDRAW -->
<svg xmlns="http://www.w3.org/2000/svg" xml:space="preserve" width="160mm" height="160mm" version="1.1" style="shape-rendering:geometricPrecision; text-rendering:geometricPrecision; image-rendering:optimizeQuality; fill-rule:evenodd; clip-rule:evenodd"
viewBox="0 0 16000 16000"
 xmlns:xlink="http://www.w3.org/1999/xlink"
 xmlns:xodm="http://www.corel.com/coreldraw/odm/2003">
 <defs>
  <style type="text/css">
   <![CDATA[
    .str0 {stroke:white;stroke-width:141.11;stroke-miterlimit:22.9256}
    .fil0 {fill:white;fill-rule:nonzero}
   ]]>
  </style>
 </defs>
 <g id="Warstwa_x0020_1">
  <metadata id="CorelCorpID_0Corel-Layer"/>
  <g id="_105553291143680">
   <g>
    <path class="fil0" d="M7514.91 12718.85c-56.47,-56.54 -134.85,-89.02 -214.76,-89.02 -79.91,0 -158.28,32.48 -214.79,89.02 -56.51,56.54 -89.02,134.89 -89.02,214.79 0,79.9 32.48,158.28 89.02,214.76 56.51,56.51 134.89,89.05 214.79,89.05 79.9,0 158.28,-32.51 214.76,-89.05 56.54,-56.48 89.05,-134.86 89.05,-214.76 0,-79.9 -32.51,-158.28 -89.05,-214.79z"/>
   </g>
  </g>
  <g id="_105553291143232">
   <g>
    <path class="fil0" d="M7300.15 13814.67c-167.76,0 -303.81,136.04 -303.81,303.8l0 1427.88c0,167.76 136.05,303.8 303.81,303.8 167.76,0 303.81,-136.04 303.81,-303.8l0 -1427.88c0,-167.76 -136.05,-303.8 -303.81,-303.8z"/>
   </g>
  </g>
  <g id="_105553291144224">
   <g>
    <path class="fil0" d="M12282.53 4965.67c167.76,0 303.81,-136.05 303.81,-303.81l-0.01 -2604.38c0,-971.59 -790.47,-1762.06 -1762.06,-1762.06l-5589.98 0c-971.59,0 -1762.06,790.47 -1762.06,1762.06l0 7412.8c0,971.59 790.47,1762.06 1762.06,1762.06l1762.06 0 0 516.47c0,167.76 136.05,303.81 303.81,303.81 167.76,0 303.8,-136.05 303.8,-303.81l0 -516.47 850.65 0 0 4314.01c0,167.77 136.04,303.81 303.8,303.81 167.77,0 303.81,-136.04 303.81,-303.81l-0.01 -4314.01 1762.06 0c971.6,0 1762.07,-790.47 1762.07,-1762.06l0 -2551.95c0,-167.76 -136.05,-303.8 -303.81,-303.8 -167.76,0 -303.8,136.04 -303.8,303.8l0 2551.95c0,636.56 -517.9,1154.45 -1154.46,1154.45l-5589.98 0c-636.56,0 -1154.45,-517.89 -1154.45,-1154.45l0 -7412.8c0,-636.56 517.89,-1154.45 1154.45,-1154.45l5589.98 -0.01c636.56,0 1154.46,517.89 1154.46,1154.45l0 2604.39c0,167.76 136.04,303.81 303.8,303.81z"/>
   </g>
  </g>
  <g id="_105553291146976">
   <g>
    <path class="fil0" d="M12497.29 5642.36c-56.48,-56.51 -134.86,-89.05 -214.76,-89.05 -79.9,0 -158.28,32.51 -214.79,89.05 -56.51,56.48 -89.01,134.86 -89.01,214.76 0,79.93 32.47,158.31 89.01,214.79 56.51,56.5 134.89,89.01 214.79,89.01 80.2,0 158.28,-32.48 214.76,-89.01 56.51,-56.48 89.05,-134.86 89.05,-214.79 -0.01,-79.9 -32.51,-158.28 -89.05,-214.76z"/>
   </g>
  </g>
  <g id="_105553291138368">
   <g>
    <path class="fil0" d="M10255.79 1935.95l-4453.02 0c-480.98,0 -872.28,391.3 -872.28,872.28l0 2461.24c0,167.76 136.04,303.8 303.81,303.8l345.93 0c125.41,353.6 463.12,607.61 859.16,607.61 396.04,0 733.74,-254.01 859.15,-607.61l1451.36 0c125.41,353.6 463.12,607.61 859.16,607.61 396.04,0 733.74,-254.01 859.15,-607.61l356.06 0c167.77,0 303.81,-136.04 303.81,-303.8l-0.01 -2461.24c0,-480.98 -391.29,-872.28 -872.28,-872.28zm-2780.95 607.62l1108.89 0 0 907.21 -1108.89 0 0 -907.21zm-1936.75 264.66c0,-145.94 118.73,-264.67 264.68,-264.67l1064.46 0.01 0 907.21 -1329.14 0 0 -642.55zm1203.07 2495.29c-17.02,151.51 -145.8,269.75 -301.77,269.75 -167.52,0 -303.81,-136.29 -303.81,-303.8 0,-167.52 136.29,-303.81 303.81,-303.81 155.97,0 284.75,118.24 301.77,269.75 -1.28,11.18 -2.04,22.54 -2.04,34.06 0,11.51 0.76,22.88 2.04,34.05zm2867.9 269.75c-167.52,0 -303.81,-136.32 -303.81,-303.8 0,-167.52 136.29,-303.81 303.81,-303.81 167.51,0 303.8,136.29 303.8,303.81 0,167.51 -136.29,303.8 -303.8,303.8zm911.41 -607.6l-52.26 0c-125.41,-353.6 -463.11,-607.61 -859.15,-607.61 -396.04,0 -733.75,254.01 -859.16,607.61l-1451.36 0c-125.41,-353.6 -463.11,-607.61 -859.15,-607.61 -396.04,0 -733.75,254.01 -859.16,607.61l-42.14 0 0 -907.25 4982.38 0 0 907.25zm0 -1514.89l-1329.14 0 0 -907.21 1064.46 0c145.95,0 264.68,118.72 264.68,264.67l0 642.54z"/>
   </g>
  </g>
  <g id="_105553291135200">
  </g>
  <g id="_105553291133696">
  </g>
  <g id="_105553291135040">
  </g>
  <g id="_105553291138080">
  </g>
  <g id="_105553291140128">
  </g>
  <g id="_105553291133408">
  </g>
  <g id="_105553291139744">
  </g>
  <g id="_105553291145792">
  </g>
  <g id="_105553291144640">
  </g>
  <g id="_105553291144704">
  </g>
  <g id="_105553291139072">
  </g>
  <g id="_105553291141088">
  </g>
  <g id="_105553291141152">
  </g>
  <g id="_105553291148864">
  </g>
  <g id="_105553291148736">
  </g>
  <path class="fil0 str0" d="M6564.27 7130.49c37.7,0 70.17,11.52 97.39,34.56 27.24,23.03 40.85,52.36 40.85,87.97 0,27.22 -9.43,53.41 -28.27,78.54l-1350.99 1778.27 -18.85 -21.99 1247.3 0c35.61,0 65.98,11.52 91.12,34.56 25.13,23.04 37.7,51.31 37.7,84.82 0,35.61 -12.57,64.94 -37.7,87.98 -25.14,23.04 -55.51,34.56 -91.12,34.56l-1460.94 0c-37.7,0 -69.12,-13.62 -94.25,-40.85 -25.14,-27.23 -37.71,-55.5 -37.71,-84.82 0,-27.23 9.43,-53.42 28.28,-78.55l1347.84 -1771.98 25.13 15.7 -1175.04 0c-35.61,0 -65.98,-11.52 -91.11,-34.56 -25.13,-23.04 -37.7,-51.31 -37.7,-84.82 0,-35.62 12.57,-64.41 37.7,-86.4 25.13,-22 55.5,-32.99 91.11,-32.99l1379.26 0zm1231.59 2199.27c-37.7,0 -69.12,-12.57 -94.25,-37.7 -25.14,-25.14 -37.7,-55.51 -37.7,-91.11l0 -1941.65 267.05 0 0 1941.65c0,35.6 -12.57,65.97 -37.7,91.11 -25.13,25.13 -57.6,37.7 -97.4,37.7zm-728.9 -1960.5c-35.61,0 -65.46,-10.99 -89.54,-32.99 -24.09,-21.99 -36.13,-50.79 -36.13,-86.39 0,-35.62 12.04,-64.41 36.13,-86.4 24.08,-22 53.93,-32.99 89.54,-32.99l1460.94 0c35.61,0 65.98,10.99 91.12,32.99 25.13,21.99 37.7,50.78 37.7,86.4 0,37.7 -12.57,67.02 -37.7,87.96 -25.14,20.95 -55.51,31.42 -91.12,31.42l-1460.94 0zm2095.59 -241.91c18.85,0 39.27,5.23 61.26,15.7 22,10.48 39.28,24.09 51.85,40.85l832.58 1259.87 -109.97 -3.14 842.01 -1256.73c27.23,-39.8 62.83,-58.65 106.82,-56.55 33.51,2.09 62.84,14.66 87.97,37.7 25.14,23.03 37.7,53.41 37.7,91.11l0 1944.79c0,35.6 -12.56,65.97 -37.7,91.11 -25.13,25.13 -56.55,37.7 -94.25,37.7 -37.71,0 -69.13,-12.57 -94.26,-37.7 -25.13,-25.14 -37.7,-55.51 -37.7,-91.11l0 -1706.02 78.55 15.72 -741.48 1127.91c-12.56,14.66 -27.74,27.22 -45.55,37.7 -17.8,10.47 -36.13,15.71 -54.98,15.71 -18.85,0 -37.7,-5.24 -56.55,-15.71 -18.85,-10.48 -34.56,-23.04 -47.13,-37.7l-732.04 -1127.91 65.98 -81.69 0 1771.99c0,35.6 -11.52,65.97 -34.56,91.11 -23.04,25.13 -52.37,37.7 -87.97,37.7 -35.61,0 -64.41,-12.57 -86.41,-37.7 -21.99,-25.14 -32.99,-55.51 -32.99,-91.11l0 -1944.79c0,-33.52 12.05,-63.36 36.14,-89.55 24.09,-26.17 54.97,-39.26 92.68,-39.26z"/>
 </g>
</svg>
